<svg width="1280" height="720" xmlns="http://www.w3.org/2000/svg" xmlns:xlink="http://www.w3.org/1999/xlink" overflow="hidden"><defs><clipPath id="clip0"><rect x="0" y="0" width="1280" height="720"/></clipPath></defs><g clip-path="url(#clip0)"><rect x="0" y="0" width="1280" height="720" fill="#FFFFFF"/><rect x="0.500053" y="0.500053" width="1280" height="720" stroke="#172C51" stroke-width="1.33333" stroke-miterlimit="8" fill="#FFFFFF"/><path d="M0 10.6772C-1.43228e-15 4.78033 4.78033-1.43228e-15 10.6772-1.43228e-15L241.323 0C247.22-1.43228e-15 252 4.78033 252 10.6772L252 709.323C252 715.22 247.22 720 241.323 720L10.6772 720C4.78033 720 0 715.22 1.43228e-15 709.323Z" fill="#ED7D31" fill-rule="evenodd"/><path d="M129 79.2505C129 58.1253 146.125 41 167.25 41L1231.75 41C1252.87 41 1270 58.1253 1270 79.2505L1270 659.75C1270 680.875 1252.87 698 1231.75 698L167.25 698C146.125 698 129 680.875 129 659.75Z" fill="#F2F2F2" fill-rule="evenodd"/><path d="M148 65.5006C148 60.8059 151.806 57 156.5 57L1242.5 57C1247.19 57 1251 60.8059 1251 65.5006L1251 99.4994C1251 104.194 1247.19 108 1242.5 108L156.5 108C151.806 108 148 104.194 148 99.4994Z" fill="#FFFFFF" fill-rule="evenodd"/><path d="M842 161.362C842 140.728 858.728 124 879.362 124L1213.64 124C1234.27 124 1251 140.728 1251 161.362L1251 641.638C1251 662.272 1234.27 679 1213.64 679L879.362 679C858.728 679 842 662.272 842 641.638Z" fill="#FFFFFF" fill-rule="evenodd"/><path d="M147 459.376C147 447.57 156.57 438 168.376 438L800.624 438C812.43 438 822 447.57 822 459.376L822 650.624C822 662.43 812.43 672 800.624 672L168.376 672C156.57 672 147 662.43 147 650.624Z" fill="#FFFFFF" fill-rule="evenodd"/><path d="M499 296.241C499 289.48 504.48 284 511.241 284L805.759 284C812.52 284 818 289.48 818 296.241L818 405.759C818 412.52 812.52 418 805.759 418L511.241 418C504.48 418 499 412.52 499 405.759Z" fill="#FFFFFF" fill-rule="evenodd"/><path d="M151 293.332C151 286.521 156.521 281 163.332 281L467.668 281C474.479 281 480 286.521 480 293.332L480 403.668C480 410.479 474.479 416 467.668 416L163.332 416C156.521 416 151 410.479 151 403.668Z" fill="#FFFFFF" fill-rule="evenodd"/><path d="M154 139.332C154 132.521 159.521 127 166.332 127L470.668 127C477.479 127 483 132.521 483 139.332L483 249.668C483 256.479 477.479 262 470.668 262L166.332 262C159.521 262 154 256.479 154 249.668Z" fill="#FFFFFF" fill-rule="evenodd"/><path d="M499 139.332C499 132.521 504.521 127 511.332 127L805.668 127C812.479 127 818 132.521 818 139.332L818 249.668C818 256.479 812.479 262 805.668 262L511.332 262C504.521 262 499 256.479 499 249.668Z" fill="#FFFFFF" fill-rule="evenodd"/></g></svg>